<?xml version="1.0" encoding="UTF-8" standalone="no"?>
<!DOCTYPE svg PUBLIC "-//W3C//DTD SVG 1.1//EN" "http://www.w3.org/Graphics/SVG/1.1/DTD/svg11.dtd">
<svg version="1.1" xmlns="http://www.w3.org/2000/svg" xmlns:xlink="http://www.w3.org/1999/xlink" preserveAspectRatio="xMidYMid meet" viewBox="0 0 640 640" width="640" height="640"><defs><path d="M408.06 132.26C408.06 132.26 408.06 132.26 408.06 132.26C408.06 155.95 408.06 169.11 408.06 171.74C408.06 171.74 408.06 171.74 408.06 171.74C367.01 171.74 344.21 171.74 339.65 171.74C339.65 171.74 339.65 171.74 339.65 171.74C339.65 148.05 339.65 134.89 339.65 132.26C339.65 132.26 339.65 132.26 339.65 132.26C380.69 132.26 403.5 132.26 408.06 132.26Z" id="b1i6CqdMfC"></path><path d="M409.85 132.26C423.11 132.26 433.85 121.52 433.85 108.26C433.85 108.26 433.85 108.26 433.85 108.26C433.85 95.01 423.11 84.26 409.85 84.26C402.65 84.26 345.05 84.26 337.85 84.26C324.6 84.26 313.85 95.01 313.85 108.26C313.85 108.26 313.85 108.26 313.85 108.26C313.85 121.52 324.6 132.26 337.85 132.26C352.25 132.26 402.65 132.26 409.85 132.26Z" id="a5bP08pohX"></path><path d="M374.01 171.74C267.97 171.74 182 257.7 182 363.74C182 469.78 267.97 555.74 374.01 555.74C480.05 555.74 566.01 469.78 566.01 363.74C566.01 257.7 480.05 171.74 374.01 171.74Z" id="c4Wujoajkh"></path><path d="M374.01 218.61C293.85 218.61 228.87 283.59 228.87 363.74C228.87 443.9 293.85 508.87 374.01 508.87C454.16 508.87 519.14 443.9 519.14 363.74C519.14 283.59 454.16 218.61 374.01 218.61Z" id="eEoZs68QA"></path><path d="M374.01 342.67C362.37 342.67 352.93 352.1 352.93 363.74C352.93 375.38 362.37 384.82 374.01 384.82C385.64 384.82 395.08 375.38 395.08 363.74C395.08 352.1 385.64 342.67 374.01 342.67Z" id="a2pnoT0YtG"></path><path d="M516.84 220.9C488.72 192.78 454.29 174.7 418.06 166.66C418.06 164.12 418.06 143.8 418.06 141.26C432.86 137.57 443.85 124.18 443.85 108.26C443.85 89.51 428.6 74.26 409.85 74.26C402.65 74.26 345.05 74.26 337.85 74.26C319.1 74.26 303.85 89.51 303.85 108.26C303.85 124.18 314.85 137.57 329.65 141.26C329.65 143.8 329.65 164.19 329.65 166.73C293.53 174.81 259.22 192.86 231.17 220.9C225.03 227.04 219.37 233.48 214.19 240.17C213.94 240.15 213.69 240.14 213.43 240.14C206.3 240.14 149.29 240.14 142.17 240.14C136.65 240.14 132.17 244.61 132.17 250.14C132.17 255.66 136.65 260.14 142.17 260.14C148.01 260.14 194.74 260.14 200.58 260.14C193.25 272.41 187.34 285.3 182.84 298.57C171.95 298.57 84.88 298.57 74 298.57C68.48 298.57 64 303.05 64 308.57C64 314.1 68.48 318.57 74 318.57C84.32 318.57 166.87 318.57 177.19 318.57C174.3 331.22 172.65 344.1 172.22 357.01C167.8 357.01 132.42 357.01 128 357.01C122.48 357.01 118 361.49 118 367.01C118 372.53 122.48 377.01 128 377.01C132.45 377.01 168.09 377.01 172.54 377.01C173.39 389.96 175.47 402.83 178.79 415.45C172.31 415.45 120.48 415.45 114 415.45C108.48 415.45 104 419.93 104 425.45C104 430.97 108.48 435.45 114 435.45C121.12 435.45 178.05 435.45 185.17 435.45C194.98 461.4 210.31 485.72 231.17 506.58C264.11 539.53 307.75 560.19 354.04 564.76C360.64 565.42 367.25 565.74 373.86 565.74C412.88 565.74 451.41 554.45 484.1 533.16C488.72 530.14 490.03 523.95 487.02 519.32C484.01 514.69 477.81 513.38 473.18 516.4C401.62 562.99 305.79 552.92 245.31 492.44C174.35 421.48 174.35 306.01 245.31 235.05C316.27 164.09 431.74 164.09 502.7 235.05C563.1 295.45 573.23 391.2 526.79 462.72C523.78 467.36 525.1 473.55 529.73 476.56C534.36 479.57 540.55 478.25 543.56 473.62C568.37 435.4 579.54 389.25 575.01 343.65C570.42 297.41 549.76 253.82 516.84 220.9ZM337.85 94.26C345.05 94.26 402.65 94.26 409.85 94.26C417.57 94.26 423.85 100.54 423.85 108.26C423.85 115.98 417.57 122.26 409.85 122.26C409.73 122.26 409.14 122.26 408.06 122.26L339.65 122.26C338.57 122.26 337.97 122.26 337.85 122.26C330.13 122.26 323.85 115.98 323.85 108.26C323.85 100.54 330.13 94.26 337.85 94.26ZM349.65 142.26L398.06 142.26C398.06 154.86 398.06 161.86 398.06 163.26C381.98 161.35 365.72 161.36 349.65 163.3C349.65 160.49 349.65 153.48 349.65 142.26Z" id="a3qYZI8byq"></path><path d="M502.71 492.44C500.84 494.3 499.78 496.88 499.78 499.51C499.78 502.14 500.84 504.72 502.71 506.58C504.57 508.45 507.14 509.51 509.78 509.51C512.41 509.51 514.98 508.45 516.85 506.58C518.71 504.72 519.78 502.14 519.78 499.51C519.78 496.88 518.71 494.3 516.85 492.44C514.98 490.58 512.41 489.51 509.78 489.51C507.14 489.51 504.57 490.58 502.71 492.44Z" id="b1ziDiu6HC"></path><path d="M218.87 363.74C218.87 449.28 288.47 518.87 374.01 518.87C459.55 518.87 529.14 449.28 529.14 363.74C529.14 278.2 459.55 208.61 374.01 208.61C288.47 208.61 218.87 278.2 218.87 363.74ZM238.87 363.74C238.87 289.23 299.49 228.61 374.01 228.61C448.52 228.61 509.14 289.23 509.14 363.74C509.14 438.25 448.52 498.87 374.01 498.87C299.49 498.87 238.87 438.25 238.87 363.74Z" id="h4vVwgWxRM"></path><path d="M387.73 335.87C383.59 333.82 378.93 332.67 374.01 332.67C369.08 332.67 364.42 333.82 360.28 335.87C358.06 333.66 340.33 315.92 338.11 313.7C334.21 309.8 327.88 309.8 323.97 313.7C320.06 317.61 320.06 323.94 323.97 327.85C326.19 330.06 343.92 347.8 346.14 350.01C344.09 354.16 342.93 358.82 342.93 363.74C342.93 380.87 356.87 394.82 374.01 394.82C391.14 394.82 405.08 380.87 405.08 363.74C405.08 358.82 403.92 354.16 401.88 350.01C405.08 346.81 421.11 330.78 449.95 301.94L449.95 301.94C450.82 301.07 451.31 300.58 451.4 300.48C455.31 296.58 455.31 290.25 451.4 286.34C447.5 282.44 441.17 282.44 437.26 286.34C427.36 296.25 392.68 330.92 387.73 335.87ZM362.93 363.74C362.93 357.64 367.9 352.67 374.01 352.67C380.11 352.67 385.08 357.64 385.08 363.74C385.08 369.85 380.11 374.82 374.01 374.82C367.9 374.82 362.93 369.85 362.93 363.74Z" id="c3UputYiXQ"></path><path d="M471.66 353.86C466.14 353.86 461.66 358.34 461.66 363.86C461.66 369.39 466.14 373.86 471.66 373.86C472.59 373.86 480 373.86 480.93 373.86C486.45 373.86 490.93 369.39 490.93 363.86C490.93 358.34 486.45 353.86 480.93 353.86C479.07 353.86 472.59 353.86 471.66 353.86Z" id="gYv8ztDLr"></path><path d="M267.09 353.62C261.56 353.62 257.08 358.1 257.08 363.62C257.08 369.14 261.56 373.62 267.09 373.62C268.01 373.62 275.42 373.62 276.35 373.62C281.87 373.62 286.35 369.14 286.35 363.62C286.35 358.1 281.87 353.62 276.35 353.62C274.5 353.62 268.01 353.62 267.09 353.62Z" id="b4kASGRIZc"></path><path d="M384.13 266.09C384.13 265.16 384.13 257.75 384.13 256.82C384.13 251.3 379.65 246.82 374.13 246.82C368.61 246.82 364.13 251.3 364.13 256.82C364.13 257.75 364.13 265.16 364.13 266.09C364.13 271.61 368.61 276.09 374.13 276.09C379.65 276.09 384.13 271.61 384.13 266.09Z" id="j24CfDK4xp"></path><path d="M363.88 461.4C363.88 462.32 363.88 469.74 363.88 470.66C363.88 476.19 368.36 480.66 373.88 480.66C379.41 480.66 383.88 476.19 383.88 470.66C383.88 469.74 383.88 462.32 383.88 461.4C383.88 455.88 379.41 451.4 373.88 451.4C368.36 451.4 363.88 455.88 363.88 461.4Z" id="bkSjSx3"></path><path d="M66.93 418.37C65.07 420.23 64 422.81 64 425.44C64 428.08 65.07 430.65 66.93 432.51C68.79 434.37 71.37 435.44 74 435.44C76.63 435.44 79.21 434.37 81.07 432.51C82.93 430.65 84 428.07 84 425.44C84 422.81 82.93 420.23 81.07 418.37C79.21 416.51 76.63 415.44 74 415.44C71.37 415.44 68.79 416.51 66.93 418.37Z" id="es0Y6bKHd"></path></defs><g><g><g><use xlink:href="#b1i6CqdMfC" opacity="1" fill="#d5f5fb" fill-opacity="1"></use><g><use xlink:href="#b1i6CqdMfC" opacity="1" fill-opacity="0" stroke="#000000" stroke-width="1" stroke-opacity="0"></use></g></g><g><use xlink:href="#a5bP08pohX" opacity="1" fill="#ff7480" fill-opacity="1"></use><g><use xlink:href="#a5bP08pohX" opacity="1" fill-opacity="0" stroke="#000000" stroke-width="1" stroke-opacity="0"></use></g></g><g><use xlink:href="#c4Wujoajkh" opacity="1" fill="#5ddef5" fill-opacity="1"></use><g><use xlink:href="#c4Wujoajkh" opacity="1" fill-opacity="0" stroke="#000000" stroke-width="1" stroke-opacity="0"></use></g></g><g><use xlink:href="#eEoZs68QA" opacity="1" fill="#ffffff" fill-opacity="1"></use><g><use xlink:href="#eEoZs68QA" opacity="1" fill-opacity="0" stroke="#000000" stroke-width="1" stroke-opacity="0"></use></g></g><g><use xlink:href="#a2pnoT0YtG" opacity="1" fill="#ff838e" fill-opacity="1"></use><g><use xlink:href="#a2pnoT0YtG" opacity="1" fill-opacity="0" stroke="#000000" stroke-width="1" stroke-opacity="0"></use></g></g><g><use xlink:href="#a3qYZI8byq" opacity="1" fill="#000000" fill-opacity="1"></use><g><use xlink:href="#a3qYZI8byq" opacity="1" fill-opacity="0" stroke="#000000" stroke-width="1" stroke-opacity="0"></use></g></g><g><use xlink:href="#b1ziDiu6HC" opacity="1" fill="#000000" fill-opacity="1"></use><g><use xlink:href="#b1ziDiu6HC" opacity="1" fill-opacity="0" stroke="#000000" stroke-width="1" stroke-opacity="0"></use></g></g><g><use xlink:href="#h4vVwgWxRM" opacity="1" fill="#000000" fill-opacity="1"></use><g><use xlink:href="#h4vVwgWxRM" opacity="1" fill-opacity="0" stroke="#000000" stroke-width="1" stroke-opacity="0"></use></g></g><g><use xlink:href="#c3UputYiXQ" opacity="1" fill="#000000" fill-opacity="1"></use><g><use xlink:href="#c3UputYiXQ" opacity="1" fill-opacity="0" stroke="#000000" stroke-width="1" stroke-opacity="0"></use></g></g><g><use xlink:href="#gYv8ztDLr" opacity="1" fill="#000000" fill-opacity="1"></use><g><use xlink:href="#gYv8ztDLr" opacity="1" fill-opacity="0" stroke="#000000" stroke-width="1" stroke-opacity="0"></use></g></g><g><use xlink:href="#b4kASGRIZc" opacity="1" fill="#000000" fill-opacity="1"></use><g><use xlink:href="#b4kASGRIZc" opacity="1" fill-opacity="0" stroke="#000000" stroke-width="1" stroke-opacity="0"></use></g></g><g><use xlink:href="#j24CfDK4xp" opacity="1" fill="#000000" fill-opacity="1"></use><g><use xlink:href="#j24CfDK4xp" opacity="1" fill-opacity="0" stroke="#000000" stroke-width="1" stroke-opacity="0"></use></g></g><g><use xlink:href="#bkSjSx3" opacity="1" fill="#000000" fill-opacity="1"></use><g><use xlink:href="#bkSjSx3" opacity="1" fill-opacity="0" stroke="#000000" stroke-width="1" stroke-opacity="0"></use></g></g><g><use xlink:href="#es0Y6bKHd" opacity="1" fill="#000000" fill-opacity="1"></use><g><use xlink:href="#es0Y6bKHd" opacity="1" fill-opacity="0" stroke="#000000" stroke-width="1" stroke-opacity="0"></use></g></g></g></g></svg>