<svg id="Capa_1" enable-background="new 0 0 512 512" height="512" viewBox="0 0 512 512" width="512" xmlns="http://www.w3.org/2000/svg"><path d="m256 0-20.016 404.445 115.694-20.016v-44.316c52.675-32.25 87.825-90.322 87.825-156.609 0-101.347-82.157-183.504-183.503-183.504z" fill="#ffd422"/><path d="m72.497 183.503c0 66.287 35.15 124.36 87.825 156.609v44.316l95.678 20.017v-404.445c-101.346 0-183.503 82.157-183.503 183.503z" fill="#fff79f"/><path d="m319.785 166.61c-9.314 0-16.893 7.578-16.893 16.893s7.578 16.894 16.893 16.894 16.893-7.578 16.893-16.894c0-9.315-7.578-16.893-16.893-16.893z" fill="none"/><path d="m192.215 166.61c-9.314 0-16.893 7.578-16.893 16.893s7.578 16.894 16.893 16.894 16.893-7.578 16.893-16.894c-.001-9.315-7.579-16.893-16.893-16.893z" fill="none"/><path d="m319.785 136.61c-25.856 0-46.893 21.036-46.893 46.893 0 5.955 1.127 11.648 3.161 16.894h-20.053l-10.008 14.473 10.008 15.526h16.893v184.056h30v-184.056h16.893c25.856 0 46.893-21.036 46.893-46.894-.001-25.856-21.037-46.892-46.894-46.892zm0 63.786c-9.314 0-16.893-7.578-16.893-16.894 0-9.314 7.578-16.893 16.893-16.893s16.893 7.578 16.893 16.893c0 9.316-7.578 16.894-16.893 16.894z" fill="#ff9f22"/><path d="m235.947 200.396c2.033-5.245 3.161-10.939 3.161-16.894 0-25.856-21.036-46.893-46.893-46.893s-46.893 21.036-46.893 46.893 21.036 46.894 46.893 46.894h16.893v184.056h30v-184.056h16.892v-30zm-43.732 0c-9.314 0-16.893-7.578-16.893-16.894 0-9.314 7.578-16.893 16.893-16.893s16.893 7.578 16.893 16.893c-.001 9.316-7.579 16.894-16.893 16.894z" fill="#ffd422"/><path d="m256 384.429-20.016 83.802 115.694-20.016v-63.786z" fill="#b4d2d7"/><path d="m256 384.429h-95.678v63.786l95.678 20.016z" fill="#e1ebf0"/><path d="m256 512h95.678v-63.785h-95.678l-20.016 31.892z" fill="#87a0af"/><path d="m160.322 448.215h95.678v63.785h-95.678z" fill="#b4d2d7"/></svg>