<?xml version="1.0" encoding="UTF-8" standalone="no"?>
<!DOCTYPE svg PUBLIC "-//W3C//DTD SVG 1.1//EN" "http://www.w3.org/Graphics/SVG/1.1/DTD/svg11.dtd">
<svg version="1.1" xmlns="http://www.w3.org/2000/svg" xmlns:xlink="http://www.w3.org/1999/xlink" preserveAspectRatio="xMidYMid meet" viewBox="0 0 640 640" width="640" height="640"><defs><path d="M298.17 472.65L424.34 452.07C424.34 424.73 424.34 409.54 424.34 406.5C481.78 373.33 520.12 313.61 520.12 245.45C520.12 141.23 430.52 56.74 320 56.74C320 56.74 312.72 195.38 298.17 472.65Z" id="a7lkPv8vv"></path><path d="M215.66 406.5C215.66 409.53 215.66 424.73 215.66 452.07L320 472.65C320 223.11 320 84.47 320 56.74C209.48 56.74 119.88 141.23 119.88 245.45C119.88 313.61 158.22 373.33 215.66 406.5Z" id="cZfucj0hf"></path><path d="M371.14 245.45C371.14 255.03 379.4 262.82 389.56 262.82C399.72 262.82 407.98 255.03 407.98 245.45C407.98 235.87 399.72 228.08 389.56 228.08C379.4 228.08 371.14 235.87 371.14 245.45Z" id="c1eSM4l7iB"></path><path d="M232.02 245.45C232.02 255.03 240.28 262.82 250.44 262.82C260.6 262.82 268.86 255.03 268.86 245.45C268.86 235.87 260.6 228.08 250.44 228.08C240.28 228.08 232.02 235.87 232.02 245.45Z" id="a3bHZl6eE"></path><path d="M338.42 245.45C338.42 251.57 339.65 257.43 341.87 262.82C340.41 262.82 333.12 262.82 320 262.82L309.09 277.7L320 293.67L338.42 293.67L338.42 482.94L371.14 482.94L371.14 293.67C382.19 293.67 388.33 293.67 389.56 293.67C417.76 293.67 440.7 272.04 440.7 245.45C440.7 218.86 417.76 197.23 389.56 197.23C361.36 197.23 338.42 218.86 338.42 245.45ZM371.14 245.45C371.14 235.87 379.4 228.08 389.56 228.08C399.72 228.08 407.98 235.87 407.98 245.45C407.98 255.03 399.72 262.82 389.56 262.82C379.4 262.82 371.14 255.03 371.14 245.45Z" id="af3PJkeT4"></path><path d="M298.13 262.82C300.35 257.43 301.58 251.57 301.58 245.45C301.58 218.86 278.64 197.22 250.44 197.22C222.24 197.22 199.3 218.86 199.3 245.45C199.3 272.04 222.24 293.67 250.44 293.67C251.67 293.67 257.81 293.67 268.86 293.67L268.86 482.94L301.58 482.94L301.58 293.67L320 293.67L320 262.82C308.34 262.82 301.05 262.82 298.13 262.82ZM232.02 245.45C232.02 235.87 240.28 228.08 250.44 228.08C260.6 228.08 268.86 235.87 268.86 245.45C268.86 255.03 260.6 262.82 250.44 262.82C240.28 262.82 232.02 255.03 232.02 245.45Z" id="a6tUZRuY3c"></path><path d="M320 452.07L298.17 538.25L424.34 517.66L424.34 452.07L320 452.07Z" id="a1TQyTk6Y"></path><path d="M320 452.07L215.66 452.07L215.66 517.66L320 538.25L320 452.07Z" id="aamkqvyyu"></path><path d="M320 583.26L424.34 583.26L424.34 517.66L320 517.66L298.17 550.46L320 583.26Z" id="bd96UOvlj"></path><path d="M215.66 517.66L320 517.66L320 583.26L215.66 583.26L215.66 517.66Z" id="l2YoQBaPOb"></path></defs><g><g><g><use xlink:href="#a7lkPv8vv" opacity="1" fill="#ffd422" fill-opacity="1"></use><g><use xlink:href="#a7lkPv8vv" opacity="1" fill-opacity="0" stroke="#000000" stroke-width="1" stroke-opacity="0"></use></g></g><g><use xlink:href="#cZfucj0hf" opacity="1" fill="#fff79f" fill-opacity="1"></use><g><use xlink:href="#cZfucj0hf" opacity="1" fill-opacity="0" stroke="#000000" stroke-width="1" stroke-opacity="0"></use></g></g><g><use xlink:href="#c1eSM4l7iB" opacity="1" fill="#000000" fill-opacity="0"></use><g><use xlink:href="#c1eSM4l7iB" opacity="1" fill-opacity="0" stroke="#000000" stroke-width="1" stroke-opacity="0"></use></g></g><g><use xlink:href="#a3bHZl6eE" opacity="1" fill="#000000" fill-opacity="0"></use><g><use xlink:href="#a3bHZl6eE" opacity="1" fill-opacity="0" stroke="#000000" stroke-width="1" stroke-opacity="0"></use></g></g><g><use xlink:href="#af3PJkeT4" opacity="1" fill="#ff9f22" fill-opacity="1"></use><g><use xlink:href="#af3PJkeT4" opacity="1" fill-opacity="0" stroke="#000000" stroke-width="1" stroke-opacity="0"></use></g></g><g><use xlink:href="#a6tUZRuY3c" opacity="1" fill="#ffd422" fill-opacity="1"></use><g><use xlink:href="#a6tUZRuY3c" opacity="1" fill-opacity="0" stroke="#000000" stroke-width="1" stroke-opacity="0"></use></g></g><g><use xlink:href="#a1TQyTk6Y" opacity="1" fill="#b4d2d7" fill-opacity="1"></use><g><use xlink:href="#a1TQyTk6Y" opacity="1" fill-opacity="0" stroke="#000000" stroke-width="1" stroke-opacity="0"></use></g></g><g><use xlink:href="#aamkqvyyu" opacity="1" fill="#e1ebf0" fill-opacity="1"></use><g><use xlink:href="#aamkqvyyu" opacity="1" fill-opacity="0" stroke="#000000" stroke-width="1" stroke-opacity="0"></use></g></g><g><use xlink:href="#bd96UOvlj" opacity="1" fill="#87a0af" fill-opacity="1"></use><g><use xlink:href="#bd96UOvlj" opacity="1" fill-opacity="0" stroke="#000000" stroke-width="1" stroke-opacity="0"></use></g></g><g><use xlink:href="#l2YoQBaPOb" opacity="1" fill="#b4d2d7" fill-opacity="1"></use><g><use xlink:href="#l2YoQBaPOb" opacity="1" fill-opacity="0" stroke="#000000" stroke-width="1" stroke-opacity="0"></use></g></g></g></g></svg>