<svg id="svg" version="1.1" xmlns="http://www.w3.org/2000/svg" xmlns:xlink="http://www.w3.org/1999/xlink" width="400" height="400" viewBox="0, 0, 400,400"><g id="svgg"><path id="path0" d="M196.562 134.931 C 194.223 136.049,192.174 138.287,191.369 140.601 C 190.903 141.937,190.811 151.567,190.806 199.251 C 190.800 260.604,190.904 257.435,188.799 260.111 C 186.043 263.613,180.089 263.724,176.980 260.331 C 174.734 257.880,174.799 258.567,174.696 236.000 L 174.600 215.000 169.258 220.200 C 163.474 225.830,161.258 228.653,159.212 233.000 C 157.356 236.942,156.876 238.375,156.129 242.200 C 155.568 245.068,155.739 274.234,156.337 277.800 C 156.632 279.560,156.966 281.676,157.079 282.503 C 157.192 283.329,157.445 284.105,157.642 284.226 C 157.839 284.348,158.000 284.941,158.000 285.544 C 158.000 286.147,158.143 286.811,158.318 287.020 C 158.493 287.229,158.868 288.120,159.152 289.000 C 160.943 294.568,165.507 302.537,169.804 307.600 C 170.830 308.810,176.129 314.300,181.577 319.800 C 187.026 325.300,192.031 330.615,192.699 331.610 C 198.835 340.748,200.779 348.359,200.000 360.190 C 199.796 363.276,199.175 371.470,198.618 378.400 C 198.061 385.330,197.604 391.315,197.603 391.700 C 197.600 392.363,200.059 392.400,243.657 392.400 L 289.714 392.400 289.463 389.300 C 289.325 387.595,289.033 384.310,288.815 382.000 C 288.597 379.690,288.239 375.820,288.020 373.400 C 287.800 370.980,287.437 367.110,287.213 364.800 C 285.810 350.384,286.603 348.032,293.400 346.436 C 295.619 345.915,296.400 344.896,296.400 342.520 C 296.400 341.794,296.580 341.200,296.800 341.200 C 297.020 341.200,297.200 340.660,297.200 340.000 C 297.200 339.340,297.380 338.800,297.600 338.800 C 297.820 338.800,298.000 338.440,298.000 338.000 C 298.000 337.560,298.180 337.200,298.400 337.200 C 298.620 337.200,298.800 336.840,298.800 336.400 C 298.800 335.960,298.980 335.600,299.200 335.600 C 299.420 335.600,299.600 335.240,299.600 334.800 C 299.600 334.360,299.750 334.000,299.932 334.000 C 300.115 334.000,300.520 333.505,300.832 332.900 C 301.145 332.295,301.715 331.451,302.100 331.025 C 303.110 329.906,302.964 328.616,301.655 327.114 C 296.038 320.665,302.134 310.623,309.738 313.800 C 311.769 314.648,313.600 314.595,313.600 313.688 C 313.600 313.297,313.960 312.717,314.400 312.400 C 314.840 312.083,315.200 311.503,315.200 311.112 C 315.200 310.720,315.358 310.400,315.551 310.400 C 315.745 310.400,316.127 309.860,316.400 309.200 C 316.673 308.540,317.055 308.000,317.249 308.000 C 317.442 308.000,317.600 307.745,317.600 307.433 C 317.600 307.122,317.735 306.807,317.900 306.733 C 318.324 306.545,320.800 301.601,320.800 300.944 C 320.800 300.645,320.980 300.400,321.200 300.400 C 322.321 300.400,321.522 298.361,320.032 297.420 C 316.517 295.202,315.247 291.966,316.231 287.741 C 318.044 279.961,318.058 279.755,318.275 256.544 C 318.500 232.556,318.412 231.076,316.597 228.328 C 313.558 223.724,307.286 222.751,302.302 226.112 C 300.578 227.274,299.237 229.979,298.606 233.566 C 297.257 241.237,290.406 244.288,285.060 239.600 C 282.887 237.694,282.677 236.819,282.395 228.516 C 282.138 220.912,282.123 220.813,280.957 218.927 C 276.122 211.106,262.867 214.193,262.809 223.154 C 262.760 230.741,254.374 234.722,249.064 229.679 C 247.034 227.751,246.760 226.748,246.425 220.022 C 246.115 213.802,246.094 213.696,244.795 211.711 C 239.364 203.415,226.800 207.602,226.800 217.709 C 226.800 219.299,225.366 222.283,224.338 222.833 C 223.966 223.032,223.423 223.421,223.131 223.697 C 220.784 225.918,216.539 225.502,213.396 222.743 C 210.652 220.333,210.800 222.762,210.800 180.175 C 210.800 154.921,210.662 141.562,210.400 141.400 C 210.180 141.264,210.000 140.881,210.000 140.548 C 210.000 136.124,201.500 132.570,196.562 134.931 " stroke="none" fill="#fbc3ab" fill-rule="evenodd"></path><path id="path1" d="M15.867 15.867 C 15.720 16.013,15.600 31.403,15.600 50.067 L 15.600 84.000 49.800 84.000 L 84.000 84.000 84.000 49.800 L 84.000 15.600 50.067 15.600 C 31.403 15.600,16.013 15.720,15.867 15.867 M165.785 16.098 C 165.680 16.374,165.640 31.720,165.697 50.200 L 165.800 83.800 200.000 83.800 L 234.200 83.800 234.200 49.800 L 234.200 15.800 200.088 15.698 C 173.011 15.617,165.937 15.699,165.785 16.098 M316.000 49.798 L 316.000 84.000 350.202 84.000 L 384.404 84.000 384.302 49.900 L 384.200 15.800 350.100 15.698 L 316.000 15.596 316.000 49.798 " stroke="none" fill="#04cbf2" fill-rule="evenodd"></path><path id="path2" d="M3.064 0.594 C 2.730 0.927,2.259 1.200,2.016 1.200 C 1.773 1.200,1.456 1.515,1.310 1.900 C 1.164 2.285,0.807 2.841,0.516 3.135 C 0.082 3.574,0.006 12.040,0.094 50.148 L 0.200 96.627 1.687 98.113 C 2.504 98.931,3.449 99.600,3.787 99.600 C 4.124 99.600,4.400 99.780,4.400 100.000 C 4.400 100.264,19.867 100.400,50.000 100.400 C 80.133 100.400,95.600 100.264,95.600 100.000 C 95.600 99.780,95.876 99.600,96.213 99.600 C 96.551 99.600,97.451 98.976,98.213 98.213 C 98.976 97.451,99.600 96.551,99.600 96.213 C 99.600 95.876,99.780 95.600,100.000 95.600 C 100.261 95.600,100.400 89.133,100.400 77.000 L 100.400 58.400 105.180 58.400 C 112.114 58.400,116.800 56.819,116.800 54.479 C 116.800 54.252,116.961 54.007,117.157 53.933 C 117.354 53.860,117.562 52.810,117.621 51.600 C 117.814 47.586,117.632 46.185,116.800 45.292 C 116.360 44.820,116.000 44.246,116.000 44.017 C 116.000 43.788,115.833 43.600,115.629 43.600 C 115.424 43.600,114.978 43.321,114.638 42.980 C 113.550 41.893,109.791 41.200,104.980 41.200 L 100.400 41.200 100.400 22.800 C 100.400 10.800,100.261 4.400,100.000 4.400 C 99.780 4.400,99.600 4.124,99.600 3.787 C 99.600 3.449,98.931 2.504,98.113 1.687 L 96.627 0.200 50.148 0.094 C 9.052 -0.001,3.600 0.057,3.064 0.594 M152.033 1.569 C 151.135 2.431,150.400 3.421,150.400 3.769 C 150.400 4.116,150.220 4.400,150.000 4.400 C 149.739 4.400,149.600 10.800,149.600 22.800 L 149.600 41.200 145.260 41.200 C 142.873 41.200,140.398 41.365,139.760 41.567 C 139.122 41.769,138.098 42.044,137.484 42.179 C 136.289 42.441,134.000 44.389,134.000 45.143 C 134.000 45.394,133.820 45.600,133.600 45.600 C 133.380 45.600,133.200 46.129,133.200 46.776 C 133.200 47.423,133.020 48.064,132.800 48.200 C 132.580 48.336,132.400 49.056,132.400 49.800 C 132.400 50.544,132.580 51.264,132.800 51.400 C 133.020 51.536,133.200 52.152,133.200 52.768 C 133.200 56.386,137.270 58.376,144.700 58.390 L 149.600 58.400 149.600 77.000 C 149.600 89.133,149.739 95.600,150.000 95.600 C 150.220 95.600,150.400 95.876,150.400 96.213 C 150.400 97.009,152.991 99.600,153.787 99.600 C 154.124 99.600,154.400 99.780,154.400 100.000 C 154.400 100.264,169.867 100.400,200.000 100.400 C 230.133 100.400,245.600 100.264,245.600 100.000 C 245.600 99.780,245.876 99.600,246.213 99.600 C 247.009 99.600,249.600 97.009,249.600 96.213 C 249.600 95.876,249.780 95.600,250.000 95.600 C 250.261 95.600,250.400 89.133,250.400 77.000 L 250.400 58.400 255.700 58.390 C 261.436 58.380,263.604 58.053,264.611 57.046 C 264.966 56.691,265.424 56.400,265.629 56.400 C 265.833 56.400,266.000 56.212,266.000 55.983 C 266.000 55.754,266.360 55.180,266.800 54.708 C 267.266 54.208,267.600 53.296,267.600 52.525 C 267.600 51.796,267.780 51.200,268.000 51.200 C 268.220 51.200,268.400 50.581,268.400 49.824 C 268.400 49.067,268.220 48.336,268.000 48.200 C 267.780 48.064,267.600 47.423,267.600 46.776 C 267.600 46.129,267.420 45.600,267.200 45.600 C 266.980 45.600,266.800 45.394,266.800 45.143 C 266.800 44.389,264.511 42.441,263.316 42.179 C 262.702 42.044,261.678 41.769,261.040 41.567 C 260.402 41.365,257.747 41.200,255.140 41.200 L 250.400 41.200 250.400 22.995 C 250.400 3.074,250.526 4.143,247.867 1.515 L 246.335 0.000 200.000 0.000 L 153.665 0.000 152.033 1.569 M303.847 0.286 C 302.836 0.545,300.400 3.019,300.400 3.787 C 300.400 4.124,300.220 4.400,300.000 4.400 C 299.739 4.400,299.600 10.800,299.600 22.800 L 299.600 41.200 295.420 41.200 C 291.010 41.200,287.212 41.930,286.162 42.980 C 285.822 43.321,285.376 43.600,285.171 43.600 C 284.967 43.600,284.800 43.788,284.800 44.017 C 284.800 44.246,284.440 44.820,284.000 45.292 C 283.506 45.822,283.200 46.704,283.200 47.595 C 283.200 48.390,283.004 49.236,282.765 49.475 C 282.452 49.788,282.452 49.985,282.765 50.178 C 283.004 50.326,283.200 51.069,283.200 51.829 C 283.200 56.300,287.042 58.400,295.220 58.400 L 299.600 58.400 299.600 77.000 C 299.600 89.133,299.739 95.600,300.000 95.600 C 300.220 95.600,300.400 95.876,300.400 96.213 C 300.400 97.009,302.991 99.600,303.787 99.600 C 304.124 99.600,304.400 99.780,304.400 100.000 C 304.400 100.264,319.867 100.400,350.000 100.400 C 380.133 100.400,395.600 100.264,395.600 100.000 C 395.600 99.780,395.876 99.600,396.213 99.600 C 396.551 99.600,397.496 98.931,398.313 98.113 L 399.800 96.627 399.907 50.109 L 400.013 3.592 398.217 1.796 L 396.421 0.000 350.511 0.046 C 325.260 0.072,304.261 0.180,303.847 0.286 M84.400 50.000 L 84.400 84.400 50.000 84.400 L 15.600 84.400 15.600 50.000 L 15.600 15.600 50.000 15.600 L 84.400 15.600 84.400 50.000 M234.400 50.000 L 234.400 84.400 200.000 84.400 L 165.600 84.400 165.600 50.000 L 165.600 15.600 200.000 15.600 L 234.400 15.600 234.400 50.000 M384.400 50.000 L 384.400 84.400 350.000 84.400 L 315.600 84.400 315.600 50.000 L 315.600 15.600 350.000 15.600 L 384.400 15.600 384.400 50.000 M194.000 118.000 C 194.000 118.220,193.370 118.400,192.600 118.400 C 191.830 118.400,191.200 118.580,191.200 118.800 C 191.200 119.020,190.840 119.200,190.400 119.200 C 189.960 119.200,189.600 119.380,189.600 119.600 C 189.600 119.820,189.240 120.000,188.800 120.000 C 188.360 120.000,188.000 120.180,188.000 120.400 C 188.000 120.620,187.680 120.800,187.288 120.800 C 186.897 120.800,186.317 121.160,186.000 121.600 C 185.683 122.040,185.200 122.400,184.926 122.400 C 184.389 122.400,179.200 127.230,179.200 127.730 C 179.200 127.897,178.840 128.420,178.400 128.892 C 177.960 129.364,177.600 129.987,177.600 130.275 C 177.600 130.564,177.420 130.800,177.200 130.800 C 176.980 130.800,176.800 131.124,176.800 131.520 C 176.800 131.916,176.636 132.411,176.436 132.620 C 175.708 133.381,174.800 137.407,174.800 139.873 C 174.800 141.291,174.624 142.400,174.400 142.400 C 174.138 142.400,174.000 150.937,174.000 167.211 L 174.000 192.022 168.820 197.111 C 164.318 201.534,159.833 205.823,153.787 211.489 C 152.900 212.320,151.732 213.630,151.191 214.400 C 150.651 215.170,149.712 216.322,149.104 216.959 C 148.497 217.597,148.000 218.279,148.000 218.476 C 148.000 218.673,147.640 219.220,147.200 219.692 C 146.760 220.164,146.400 220.787,146.400 221.075 C 146.400 221.364,146.220 221.600,146.000 221.600 C 145.780 221.600,145.600 221.960,145.600 222.400 C 145.600 222.840,145.420 223.200,145.200 223.200 C 144.980 223.200,144.800 223.545,144.800 223.967 C 144.800 224.388,144.657 224.793,144.481 224.867 C 144.035 225.053,142.417 228.616,142.132 230.038 C 142.003 230.686,141.740 231.314,141.548 231.432 C 141.357 231.550,141.200 232.357,141.200 233.224 C 141.200 234.091,141.020 234.800,140.800 234.800 C 140.580 234.800,140.400 235.520,140.400 236.400 C 140.400 237.280,140.220 238.000,140.000 238.000 C 139.767 238.000,139.600 239.333,139.600 241.200 C 139.600 243.067,139.433 244.400,139.200 244.400 C 138.941 244.400,138.800 249.533,138.800 259.000 C 138.800 268.467,138.941 273.600,139.200 273.600 C 139.438 273.600,139.600 275.125,139.600 277.376 C 139.600 279.463,139.779 281.263,140.000 281.400 C 140.220 281.536,140.400 282.537,140.400 283.624 C 140.400 284.711,140.580 285.600,140.800 285.600 C 141.020 285.600,141.200 286.309,141.200 287.176 C 141.200 288.043,141.380 288.864,141.600 289.000 C 141.820 289.136,142.000 289.674,142.000 290.196 C 142.000 291.360,144.053 297.749,144.487 297.933 C 144.659 298.007,144.800 298.324,144.800 298.639 C 144.800 298.953,144.959 299.523,145.154 299.905 C 145.504 300.591,147.688 304.954,148.554 306.697 C 148.799 307.190,149.135 307.595,149.300 307.597 C 149.465 307.599,149.600 307.870,149.600 308.200 C 149.600 308.530,149.780 308.800,150.000 308.800 C 150.220 308.800,150.400 309.120,150.400 309.512 C 150.400 309.903,150.760 310.483,151.200 310.800 C 151.640 311.117,152.000 311.609,152.000 311.892 C 152.000 312.175,152.540 312.972,153.200 313.663 C 153.860 314.354,154.400 315.090,154.400 315.299 C 154.400 315.508,154.940 316.183,155.600 316.800 C 156.260 317.417,156.800 318.119,156.800 318.360 C 156.800 318.602,156.980 318.800,157.200 318.800 C 157.420 318.800,157.600 318.989,157.600 319.220 C 157.600 319.451,162.460 324.508,168.400 330.459 C 174.340 336.409,179.200 341.530,179.200 341.839 C 179.200 342.147,179.380 342.400,179.600 342.400 C 179.820 342.400,180.004 342.625,180.009 342.900 C 180.014 343.175,180.370 343.850,180.800 344.400 C 181.230 344.950,181.586 345.805,181.591 346.300 C 181.596 346.795,181.780 347.200,182.000 347.200 C 182.220 347.200,182.400 347.740,182.400 348.400 C 182.400 349.060,182.580 349.600,182.800 349.600 C 183.020 349.600,183.200 350.579,183.200 351.776 C 183.200 352.973,183.380 354.064,183.600 354.200 C 183.820 354.336,184.000 354.977,184.000 355.624 C 184.000 356.271,183.820 356.800,183.600 356.800 C 183.357 356.800,183.200 358.573,183.200 361.320 C 183.200 363.806,183.031 366.011,182.824 366.220 C 182.617 366.429,182.346 368.760,182.221 371.400 C 182.097 374.040,181.896 378.315,181.774 380.900 C 181.652 383.485,181.384 385.600,181.176 385.600 C 180.961 385.600,180.800 387.742,180.800 390.600 C 180.800 393.667,180.955 395.600,181.200 395.600 C 181.420 395.600,181.600 395.876,181.600 396.213 C 181.600 396.551,182.269 397.496,183.087 398.313 L 184.573 399.800 189.405 399.800 C 194.491 399.800,196.400 399.041,196.400 397.018 C 196.400 396.678,196.580 396.400,196.800 396.400 C 197.020 396.400,197.200 396.040,197.200 395.600 C 197.200 395.160,197.380 394.800,197.600 394.800 C 197.820 394.800,198.000 394.260,198.000 393.600 C 198.000 392.758,197.806 392.400,197.349 392.400 C 196.799 392.400,196.737 392.075,196.948 390.300 C 197.248 387.783,198.168 376.535,199.214 362.600 C 199.745 355.532,199.523 349.862,198.571 346.200 C 198.229 344.880,197.808 343.257,197.637 342.594 C 197.162 340.748,196.160 338.534,194.314 335.247 C 192.310 331.680,190.449 329.559,180.584 319.600 C 166.144 305.023,162.043 299.451,158.800 290.000 C 158.535 289.230,158.178 288.240,158.005 287.800 C 157.403 286.266,156.252 281.587,155.637 278.176 C 155.070 275.030,155.047 243.619,155.611 241.400 C 156.822 236.628,156.993 236.124,158.554 232.769 C 160.698 228.158,172.254 214.993,174.615 214.471 C 175.122 214.358,175.200 217.128,175.200 235.359 C 175.200 255.968,175.216 256.405,176.041 257.888 C 179.637 264.357,187.946 263.559,189.933 256.554 C 190.279 255.334,190.400 240.184,190.400 198.049 L 190.400 141.191 191.240 139.404 C 195.019 131.365,206.598 131.400,210.387 139.461 C 211.187 141.163,211.200 141.820,211.200 179.249 C 211.200 221.329,211.089 219.503,213.819 222.237 C 215.622 224.043,217.561 224.608,220.402 224.153 C 222.249 223.858,225.600 221.174,225.600 219.990 C 225.600 219.581,225.780 219.136,226.000 219.000 C 226.220 218.864,226.400 217.861,226.400 216.772 C 226.400 207.798,237.853 203.401,244.202 209.937 C 246.493 212.296,247.200 214.802,247.200 220.566 C 247.200 226.026,247.601 227.552,249.467 229.200 C 255.022 234.104,262.400 229.871,262.400 221.782 C 262.400 216.033,271.505 211.770,277.357 214.779 C 281.865 217.096,282.877 219.607,283.172 229.200 C 283.431 237.603,283.743 238.460,287.222 240.318 C 288.942 241.235,292.153 241.524,292.600 240.800 C 292.736 240.580,293.108 240.400,293.427 240.400 C 295.380 240.400,297.340 237.276,298.013 233.089 C 299.098 226.338,306.355 221.060,311.105 223.566 C 311.487 223.768,312.430 224.206,313.200 224.540 C 315.046 225.341,316.962 227.374,317.969 229.600 C 318.757 231.343,318.782 232.127,318.783 254.400 C 318.784 278.197,318.748 278.867,317.007 287.200 C 316.062 291.718,317.805 296.800,320.299 296.800 C 320.543 296.800,321.096 297.250,321.529 297.800 C 322.349 298.843,326.800 299.349,326.800 298.400 C 326.800 298.180,327.160 298.000,327.600 298.000 C 328.040 298.000,328.400 297.820,328.400 297.600 C 328.400 297.380,328.683 297.200,329.029 297.200 C 329.374 297.200,329.914 296.943,330.229 296.629 C 330.543 296.314,330.800 295.774,330.800 295.429 C 330.800 295.083,330.980 294.800,331.200 294.800 C 331.420 294.800,331.600 294.440,331.600 294.000 C 331.600 293.560,331.780 293.200,332.000 293.200 C 332.220 293.200,332.400 292.581,332.400 291.824 C 332.400 291.067,332.580 290.336,332.800 290.200 C 333.020 290.064,333.200 289.243,333.200 288.376 C 333.200 287.509,333.380 286.800,333.600 286.800 C 333.826 286.800,334.000 285.667,334.000 284.200 C 334.000 282.733,334.174 281.600,334.400 281.600 C 334.663 281.600,334.800 272.408,334.800 254.824 C 334.800 237.404,334.660 227.961,334.400 227.800 C 334.180 227.664,334.000 226.933,334.000 226.176 C 334.000 225.419,333.820 224.800,333.600 224.800 C 333.380 224.800,333.200 224.440,333.200 224.000 C 333.200 223.560,333.020 223.200,332.800 223.200 C 332.580 223.200,332.400 222.966,332.400 222.680 C 332.400 221.944,331.459 220.007,331.100 220.003 C 330.935 220.001,330.800 219.712,330.800 219.360 C 330.800 219.009,330.305 218.244,329.700 217.660 C 329.095 217.077,328.346 216.108,328.036 215.507 C 327.726 214.905,327.132 214.305,326.716 214.173 C 326.300 214.041,325.384 213.360,324.680 212.660 C 322.934 210.923,317.717 208.400,315.870 208.400 C 315.062 208.400,314.400 208.220,314.400 208.000 C 314.400 207.751,312.141 207.600,308.424 207.600 C 304.871 207.600,302.347 207.762,302.200 208.000 C 302.064 208.220,301.509 208.400,300.966 208.400 C 300.424 208.400,298.956 208.760,297.704 209.200 C 294.976 210.159,294.800 210.171,294.800 209.400 C 294.800 209.070,294.620 208.800,294.400 208.800 C 294.180 208.800,294.000 208.614,294.000 208.387 C 294.000 208.159,293.415 207.385,292.700 206.666 C 291.985 205.946,290.950 204.784,290.400 204.083 C 289.850 203.381,289.125 202.806,288.788 202.804 C 288.452 202.802,287.917 202.440,287.600 202.000 C 287.283 201.560,286.703 201.200,286.312 201.200 C 285.920 201.200,285.600 201.020,285.600 200.800 C 285.600 200.580,285.240 200.400,284.800 200.400 C 284.360 200.400,284.000 200.220,284.000 200.000 C 284.000 199.780,283.640 199.600,283.200 199.600 C 282.760 199.600,282.400 199.420,282.400 199.200 C 282.400 198.980,281.860 198.800,281.200 198.800 C 280.540 198.800,280.000 198.620,280.000 198.400 C 280.000 198.180,279.100 198.000,278.000 198.000 C 276.900 198.000,276.000 197.820,276.000 197.600 C 276.000 197.365,274.600 197.200,272.600 197.200 C 270.600 197.200,269.200 197.365,269.200 197.600 C 269.200 197.820,268.300 198.000,267.200 198.000 C 266.100 198.000,265.200 198.180,265.200 198.400 C 265.200 198.620,264.748 198.800,264.195 198.800 C 263.642 198.800,262.877 198.959,262.495 199.153 C 262.113 199.348,261.260 199.751,260.600 200.051 C 259.940 200.350,259.085 200.938,258.700 201.358 C 258.093 202.021,258.000 202.035,258.000 201.464 C 258.000 200.493,253.607 195.600,252.735 195.600 C 252.532 195.600,251.980 195.240,251.508 194.800 C 251.036 194.360,250.413 194.000,250.125 194.000 C 249.836 194.000,249.600 193.820,249.600 193.600 C 249.600 193.380,249.351 193.200,249.046 193.200 C 248.741 193.200,247.976 192.931,247.346 192.602 C 246.716 192.274,245.806 192.004,245.324 192.002 C 244.842 192.001,244.336 191.820,244.200 191.600 C 244.064 191.380,242.613 191.200,240.976 191.200 C 239.259 191.200,238.000 191.031,238.000 190.800 C 238.000 190.580,237.280 190.400,236.400 190.400 C 235.520 190.400,234.800 190.565,234.800 190.767 C 234.800 190.969,233.585 191.212,232.100 191.307 C 230.615 191.402,228.995 191.618,228.500 191.787 L 227.600 192.093 227.600 167.047 C 227.600 150.616,227.462 142.000,227.200 142.000 C 226.971 142.000,226.800 140.800,226.800 139.200 C 226.800 137.600,226.629 136.400,226.400 136.400 C 226.180 136.400,226.000 135.860,226.000 135.200 C 226.000 134.540,225.820 134.000,225.600 134.000 C 225.380 134.000,225.200 133.724,225.200 133.387 C 225.200 132.650,223.453 129.128,222.489 127.921 C 220.928 125.967,217.188 122.400,216.701 122.400 C 216.412 122.400,215.917 122.040,215.600 121.600 C 215.283 121.160,214.703 120.800,214.312 120.800 C 213.920 120.800,213.600 120.620,213.600 120.400 C 213.600 120.180,213.240 120.000,212.800 120.000 C 212.360 120.000,212.000 119.820,212.000 119.600 C 212.000 119.380,211.460 119.200,210.800 119.200 C 210.140 119.200,209.600 119.020,209.600 118.800 C 209.600 118.580,209.060 118.400,208.400 118.400 C 207.740 118.400,207.200 118.220,207.200 118.000 C 207.200 117.749,204.733 117.600,200.600 117.600 C 196.467 117.600,194.000 117.749,194.000 118.000 M305.165 314.360 C 302.041 315.374,300.000 318.219,300.000 321.561 C 300.000 324.233,300.644 325.396,304.287 329.300 C 305.011 330.076,309.600 330.335,309.600 329.600 C 309.600 329.380,310.056 329.200,310.613 329.200 C 311.740 329.200,314.400 326.821,314.400 325.813 C 314.400 325.476,314.580 325.200,314.800 325.200 C 315.020 325.200,315.200 324.761,315.200 324.224 C 315.200 323.687,315.380 323.136,315.600 323.000 C 315.820 322.864,316.000 322.144,316.000 321.400 C 316.000 320.656,315.820 319.936,315.600 319.800 C 315.380 319.664,315.200 319.006,315.200 318.337 C 315.200 316.794,313.088 314.655,311.928 315.023 C 311.506 315.157,310.919 315.065,310.623 314.819 C 309.909 314.227,306.468 313.937,305.165 314.360 M295.600 346.182 C 295.600 346.543,295.032 346.858,294.100 347.012 C 289.385 347.793,286.009 351.992,286.981 355.866 C 287.125 356.439,287.423 359.088,287.645 361.754 C 288.032 366.414,288.281 369.192,289.211 379.200 C 290.046 388.172,290.245 391.805,289.925 392.180 C 289.459 392.725,289.523 395.600,290.000 395.600 C 290.220 395.600,290.400 395.870,290.400 396.199 C 290.400 396.529,291.037 397.474,291.815 398.299 L 293.230 399.800 297.380 399.935 C 302.078 400.089,303.883 399.544,304.841 397.682 C 305.148 397.087,305.497 396.510,305.616 396.400 C 306.296 395.775,306.863 392.717,306.626 390.958 C 306.480 389.881,306.192 387.110,305.986 384.800 C 305.779 382.490,305.422 378.620,305.192 376.200 C 304.962 373.780,304.679 370.000,304.561 367.800 C 304.444 365.600,304.180 363.629,303.974 363.420 C 303.768 363.211,303.600 361.096,303.600 358.720 C 303.600 356.107,303.442 354.400,303.200 354.400 C 302.980 354.400,302.800 353.500,302.800 352.400 C 302.800 351.300,302.620 350.400,302.400 350.400 C 302.180 350.400,302.000 350.175,302.000 349.900 C 301.999 349.125,300.184 347.200,299.453 347.200 C 299.094 347.200,298.800 347.020,298.800 346.800 C 298.800 346.580,298.451 346.400,298.024 346.400 C 297.597 346.400,297.136 346.220,297.000 346.000 C 296.623 345.390,295.600 345.523,295.600 346.182 " stroke="none" fill="#040404" fill-rule="evenodd"></path><path id="path3" d="M84.000 49.798 L 84.000 83.996 49.700 84.100 L 15.400 84.205 49.900 84.302 L 84.400 84.400 84.400 50.000 C 84.400 31.080,84.310 15.600,84.200 15.600 C 84.090 15.600,84.000 30.989,84.000 49.798 M315.698 49.900 L 315.600 84.400 350.100 84.302 L 384.600 84.205 350.302 84.100 L 316.004 83.996 315.900 49.698 L 315.795 15.400 315.698 49.900 M165.600 84.100 C 165.600 84.265,181.080 84.400,200.000 84.400 C 218.920 84.400,234.400 84.265,234.400 84.100 C 234.400 83.935,218.920 83.800,200.000 83.800 C 181.080 83.800,165.600 83.935,165.600 84.100 M199.900 133.482 C 200.395 133.578,201.205 133.578,201.700 133.482 C 202.195 133.387,201.790 133.309,200.800 133.309 C 199.810 133.309,199.405 133.387,199.900 133.482 M203.200 133.734 C 203.200 133.837,203.781 134.124,204.491 134.372 C 205.201 134.619,205.606 134.657,205.391 134.456 C 204.935 134.029,203.200 133.458,203.200 133.734 M194.305 135.500 C 193.522 136.105,192.655 136.960,192.380 137.400 C 192.104 137.840,192.761 137.404,193.839 136.432 C 194.918 135.459,195.875 134.604,195.967 134.532 C 196.058 134.459,196.042 134.400,195.931 134.400 C 195.820 134.400,195.088 134.895,194.305 135.500 M208.040 136.577 C 208.611 137.249,209.376 138.245,209.740 138.789 C 210.103 139.333,210.400 139.575,210.400 139.328 C 210.400 139.080,209.635 138.084,208.700 137.115 C 207.765 136.146,207.468 135.904,208.040 136.577 M190.649 140.615 C 190.512 140.973,190.418 141.656,190.441 142.133 C 190.467 142.681,190.603 142.486,190.810 141.603 C 191.160 140.116,191.065 139.533,190.649 140.615 M210.668 141.400 C 210.971 143.377,211.202 143.714,211.194 142.167 C 211.191 141.525,211.016 140.730,210.805 140.400 C 210.545 139.991,210.501 140.310,210.668 141.400 M233.445 207.128 C 233.333 207.308,233.773 207.377,234.421 207.282 C 235.070 207.187,235.600 207.040,235.600 206.955 C 235.600 206.650,233.643 206.807,233.445 207.128 M237.633 206.943 C 237.725 207.021,238.430 207.201,239.200 207.342 C 240.185 207.523,240.422 207.482,240.000 207.206 C 239.458 206.850,237.237 206.603,237.633 206.943 M243.654 209.819 C 244.454 210.689,245.392 211.940,245.738 212.600 C 246.085 213.260,246.369 213.620,246.370 213.400 C 246.374 212.515,244.411 209.849,242.997 208.819 C 242.559 208.499,242.854 208.949,243.654 209.819 M226.649 214.215 C 226.512 214.573,226.418 215.256,226.441 215.733 C 226.467 216.281,226.603 216.086,226.810 215.203 C 227.160 213.716,227.065 213.133,226.649 214.215 M271.705 213.887 C 272.314 213.979,273.214 213.977,273.705 213.882 C 274.197 213.787,273.700 213.711,272.600 213.714 C 271.500 213.717,271.097 213.795,271.705 213.887 M169.934 218.609 C 167.587 220.914,165.784 222.800,165.927 222.800 C 166.070 222.800,168.040 220.955,170.305 218.700 C 173.620 215.399,174.498 214.717,174.805 215.200 C 175.132 215.712,175.189 215.697,175.194 215.100 C 175.206 213.756,174.170 214.447,169.934 218.609 M246.957 220.400 C 246.957 223.370,247.020 224.585,247.097 223.100 C 247.174 221.615,247.174 219.185,247.097 217.700 C 247.020 216.215,246.957 217.430,246.957 220.400 M264.975 216.900 L 263.800 218.200 265.100 217.025 C 265.815 216.379,266.400 215.794,266.400 215.725 C 266.400 215.416,266.070 215.688,264.975 216.900 M280.188 217.400 C 282.077 219.917,282.321 220.141,281.362 218.476 C 280.943 217.748,280.170 216.758,279.644 216.276 C 279.081 215.760,279.305 216.222,280.188 217.400 M211.432 219.000 C 211.676 220.352,213.329 222.592,214.795 223.558 C 215.331 223.911,214.960 223.388,213.970 222.396 C 212.980 221.404,211.956 219.964,211.693 219.196 C 211.271 217.963,211.240 217.940,211.432 219.000 M223.600 222.474 C 222.610 223.376,222.160 223.924,222.600 223.692 C 223.352 223.294,225.952 220.781,225.575 220.816 C 225.479 220.825,224.590 221.571,223.600 222.474 M164.598 223.765 C 164.379 224.076,163.600 225.066,162.866 225.965 C 160.913 228.360,161.537 227.960,163.747 225.400 C 164.791 224.190,165.500 223.200,165.321 223.200 C 165.142 223.200,164.817 223.454,164.598 223.765 M306.138 223.506 C 305.884 223.668,306.902 223.800,308.400 223.800 C 309.898 223.800,311.040 223.665,310.938 223.500 C 310.700 223.114,306.746 223.119,306.138 223.506 M262.049 224.000 C 262.016 224.330,261.889 225.050,261.767 225.600 C 261.575 226.464,261.607 226.503,261.999 225.888 C 262.248 225.497,262.375 224.777,262.281 224.288 C 262.186 223.800,262.082 223.670,262.049 224.000 M282.876 229.600 C 282.841 233.010,282.944 236.009,283.106 236.264 C 283.268 236.519,283.351 234.449,283.292 231.664 C 283.121 223.708,282.946 222.835,282.876 229.600 M216.665 224.454 C 217.069 224.613,218.030 224.744,218.800 224.744 C 219.570 224.744,220.531 224.613,220.935 224.454 C 221.344 224.293,220.394 224.165,218.800 224.165 C 217.206 224.165,216.256 224.293,216.665 224.454 M313.820 225.101 C 314.029 225.267,314.920 226.031,315.800 226.801 L 317.400 228.199 315.819 226.499 C 314.949 225.565,314.058 224.800,313.839 224.800 C 313.590 224.800,313.583 224.914,313.820 225.101 M248.000 228.125 C 248.000 228.194,248.585 228.779,249.300 229.425 L 250.600 230.600 249.425 229.300 C 248.330 228.088,248.000 227.816,248.000 228.125 M298.981 229.237 C 298.629 229.918,298.412 230.545,298.499 230.632 C 298.586 230.719,298.956 230.162,299.322 229.395 C 300.144 227.670,299.859 227.538,298.981 229.237 M259.833 229.163 C 259.453 229.583,258.609 230.148,257.958 230.417 C 257.307 230.687,256.853 230.987,256.950 231.083 C 257.231 231.364,259.332 230.160,260.163 229.241 C 260.582 228.778,260.834 228.400,260.724 228.400 C 260.614 228.400,260.213 228.744,259.833 229.163 M318.068 230.400 C 318.088 231.439,318.718 233.146,318.732 232.200 C 318.738 231.760,318.589 231.040,318.400 230.600 C 318.189 230.110,318.061 230.032,318.068 230.400 M253.500 231.482 C 253.995 231.578,254.805 231.578,255.300 231.482 C 255.795 231.387,255.390 231.309,254.400 231.309 C 253.410 231.309,253.005 231.387,253.500 231.482 M298.064 232.650 C 298.029 233.118,297.905 234.107,297.789 234.850 C 297.596 236.086,297.615 236.117,298.008 235.214 C 298.245 234.672,298.368 233.682,298.283 233.014 C 298.191 232.297,298.102 232.148,298.064 232.650 M284.393 238.301 C 284.868 239.016,285.648 239.793,286.128 240.028 L 287.000 240.454 286.129 239.727 C 285.650 239.327,284.869 238.550,284.394 238.000 L 283.531 237.000 284.393 238.301 M156.249 238.615 C 156.112 238.973,156.015 239.566,156.034 239.933 C 156.053 240.300,156.227 240.069,156.421 239.420 C 156.798 238.158,156.665 237.533,156.249 238.615 M295.454 239.033 C 294.823 239.587,294.387 240.120,294.483 240.216 C 294.579 240.313,295.174 239.854,295.804 239.196 C 297.196 237.743,297.016 237.659,295.454 239.033 M155.453 242.036 C 155.314 242.731,155.224 244.132,155.254 245.150 C 155.297 246.609,155.375 246.366,155.622 244.001 C 155.953 240.831,155.875 239.925,155.453 242.036 M189.829 256.629 C 189.681 257.215,189.638 257.772,189.732 257.866 C 189.827 257.960,190.024 257.558,190.171 256.971 C 190.319 256.385,190.362 255.828,190.268 255.734 C 190.173 255.640,189.976 256.042,189.829 256.629 M175.477 257.574 C 175.719 258.497,178.304 261.600,178.831 261.600 C 179.034 261.600,178.480 260.880,177.600 260.000 C 176.720 259.120,176.000 258.141,176.000 257.824 C 176.000 257.507,175.837 257.146,175.637 257.023 C 175.438 256.900,175.366 257.148,175.477 257.574 M155.240 274.033 C 155.262 275.445,155.417 277.050,155.584 277.600 C 155.751 278.150,155.799 277.070,155.690 275.200 C 155.454 271.134,155.184 270.436,155.240 274.033 M318.280 277.366 C 318.126 279.108,318.073 280.607,318.164 280.698 C 318.411 280.944,318.906 275.836,318.721 274.958 C 318.633 274.541,318.435 275.625,318.280 277.366 M156.006 280.233 C 156.009 280.875,156.184 281.670,156.395 282.000 C 156.655 282.409,156.699 282.090,156.532 281.000 C 156.229 279.023,155.998 278.686,156.006 280.233 M317.422 283.422 C 317.272 284.225,317.228 284.962,317.326 285.060 C 317.424 285.157,317.627 284.581,317.778 283.778 C 317.928 282.975,317.972 282.238,317.874 282.140 C 317.776 282.043,317.573 282.619,317.422 283.422 M156.806 283.833 C 156.809 284.255,156.995 284.870,157.218 285.200 C 157.515 285.638,157.552 285.476,157.356 284.600 C 157.027 283.129,156.798 282.810,156.806 283.833 M157.628 286.676 C 157.613 287.158,157.780 287.664,158.000 287.800 C 158.473 288.092,158.473 287.701,158.000 286.600 C 157.669 285.829,157.655 285.831,157.628 286.676 M316.600 287.200 C 316.448 287.891,316.407 288.541,316.509 288.642 C 316.611 288.744,316.809 288.253,316.950 287.550 C 317.091 286.847,317.131 286.198,317.041 286.108 C 316.950 286.017,316.752 286.509,316.600 287.200 M317.501 294.604 C 317.939 295.434,319.600 297.095,319.600 296.704 C 319.600 296.583,319.032 295.881,318.338 295.142 C 317.644 294.404,317.267 294.162,317.501 294.604 M320.914 297.720 C 321.401 298.226,321.874 298.587,321.964 298.523 C 322.198 298.355,320.742 296.800,320.352 296.800 C 320.174 296.800,320.427 297.214,320.914 297.720 M163.200 299.329 C 163.200 299.694,165.245 302.800,165.486 302.800 C 165.679 302.800,164.092 300.048,163.536 299.420 C 163.351 299.211,163.200 299.170,163.200 299.329 M166.340 304.316 C 166.833 305.009,167.444 305.704,167.697 305.860 C 167.950 306.017,167.754 305.577,167.260 304.884 C 166.767 304.191,166.156 303.496,165.903 303.340 C 165.650 303.183,165.846 303.623,166.340 304.316 M168.400 306.830 C 168.400 307.090,173.440 312.380,179.600 318.586 C 185.760 324.792,190.800 329.763,190.800 329.632 C 190.800 329.501,186.643 325.255,181.561 320.197 C 176.480 315.139,171.440 309.956,170.361 308.679 C 169.283 307.403,168.400 306.571,168.400 306.830 M302.246 315.635 C 301.662 316.095,300.918 316.986,300.592 317.615 C 299.707 319.326,299.881 319.607,300.830 318.000 C 301.284 317.230,302.139 316.196,302.728 315.702 C 304.081 314.569,303.673 314.513,302.246 315.635 M299.714 321.400 C 299.717 322.500,299.795 322.903,299.887 322.295 C 299.979 321.686,299.977 320.786,299.882 320.295 C 299.787 319.803,299.711 320.300,299.714 321.400 M301.846 326.781 C 302.312 327.342,302.892 328.160,303.134 328.600 C 303.377 329.040,303.581 329.172,303.588 328.894 C 303.595 328.616,303.015 327.798,302.300 327.076 C 301.585 326.354,301.381 326.221,301.846 326.781 M197.612 342.800 C 197.612 343.130,197.787 343.670,198.000 344.000 C 198.345 344.533,198.388 344.533,198.388 344.000 C 198.388 343.670,198.213 343.130,198.000 342.800 C 197.655 342.267,197.612 342.267,197.612 342.800 M198.468 345.600 C 198.488 346.639,199.118 348.346,199.132 347.400 C 199.138 346.960,198.989 346.240,198.800 345.800 C 198.589 345.310,198.461 345.232,198.468 345.600 M290.600 347.790 C 289.720 348.332,289.141 348.781,289.314 348.788 C 289.487 348.794,290.087 348.499,290.649 348.131 C 291.210 347.764,292.328 347.334,293.134 347.177 C 294.517 346.908,294.532 346.890,293.400 346.848 C 292.740 346.824,291.480 347.248,290.600 347.790 M199.398 356.241 C 199.398 360.589,199.508 362.866,199.659 361.600 C 199.990 358.819,199.986 351.371,199.653 349.841 C 199.514 349.203,199.399 352.083,199.398 356.241 M286.880 357.200 C 286.868 357.970,287.003 359.410,287.180 360.400 C 287.476 362.067,287.501 362.097,287.520 360.800 C 287.532 360.030,287.397 358.590,287.220 357.600 C 286.924 355.933,286.899 355.903,286.880 357.200 M287.875 367.800 C 287.998 369.340,288.166 370.675,288.249 370.767 C 288.526 371.073,288.310 367.416,287.979 366.200 C 287.773 365.443,287.735 366.034,287.875 367.800 M198.622 369.622 C 198.466 371.410,198.423 372.956,198.526 373.059 C 198.629 373.162,198.842 371.785,199.000 370.000 C 199.158 368.215,199.201 366.668,199.097 366.563 C 198.992 366.458,198.778 367.835,198.622 369.622 M288.668 376.600 C 288.795 378.140,288.966 379.475,289.049 379.567 C 289.347 379.896,289.113 375.779,288.779 374.800 C 288.563 374.169,288.522 374.832,288.668 376.600 M197.788 379.788 C 197.631 381.464,197.593 382.926,197.703 383.036 C 197.813 383.146,198.031 381.864,198.188 380.188 C 198.345 378.512,198.384 377.050,198.274 376.940 C 198.164 376.830,197.945 378.112,197.788 379.788 M289.482 385.200 C 289.604 386.850,289.771 388.275,289.852 388.367 C 290.128 388.677,289.907 384.608,289.583 383.400 C 289.386 382.668,289.347 383.369,289.482 385.200 M196.987 389.387 C 196.831 390.844,196.793 392.126,196.903 392.236 C 197.013 392.346,197.231 391.244,197.387 389.787 C 197.543 388.329,197.580 387.047,197.470 386.937 C 197.360 386.827,197.143 387.929,196.987 389.387 " stroke="none" fill="#614a42" fill-rule="evenodd"></path><path id="path4" d="M198.140 133.906 C 197.887 134.068,199.085 134.200,200.802 134.200 C 202.519 134.200,203.716 134.068,203.462 133.906 C 203.208 133.744,202.010 133.612,200.800 133.612 C 199.590 133.612,198.393 133.744,198.140 133.906 M194.249 136.041 C 193.223 136.943,192.186 138.068,191.943 138.541 C 191.701 139.013,192.172 138.630,192.992 137.689 C 193.811 136.747,195.139 135.630,195.941 135.206 C 196.743 134.782,197.110 134.427,196.756 134.418 C 196.402 134.408,195.274 135.138,194.249 136.041 M206.022 135.528 C 207.790 136.650,210.000 139.450,210.000 140.568 C 210.000 140.890,210.180 141.264,210.400 141.400 C 210.934 141.730,210.905 141.425,210.250 139.858 C 209.542 138.164,207.394 135.721,205.960 134.980 C 204.096 134.015,204.130 134.328,206.022 135.528 M190.499 199.467 C 190.444 230.744,190.296 256.664,190.170 257.067 C 189.964 257.723,189.985 257.730,190.371 257.133 C 190.676 256.662,190.773 239.750,190.700 199.533 L 190.597 142.600 190.499 199.467 M210.899 181.000 C 210.851 201.900,210.944 219.208,211.106 219.462 C 211.371 219.878,211.363 181.410,211.092 153.800 C 211.034 147.860,210.947 160.100,210.899 181.000 M233.200 207.600 C 232.667 207.945,232.667 207.988,233.200 207.988 C 233.530 207.988,234.070 207.813,234.400 207.600 C 234.933 207.255,234.933 207.212,234.400 207.212 C 234.070 207.212,233.530 207.387,233.200 207.600 M230.955 208.762 C 230.271 209.179,229.355 210.034,228.921 210.660 C 227.886 212.154,227.353 213.286,228.281 212.020 C 229.229 210.728,230.414 209.556,231.620 208.721 C 232.954 207.796,232.492 207.825,230.955 208.762 M244.574 211.400 C 245.967 213.452,246.252 213.695,245.477 212.171 C 245.134 211.495,244.549 210.690,244.178 210.382 C 243.807 210.074,243.985 210.532,244.574 211.400 M227.029 214.229 C 226.881 214.815,226.838 215.372,226.932 215.466 C 227.027 215.560,227.224 215.158,227.371 214.571 C 227.519 213.985,227.562 213.428,227.468 213.334 C 227.373 213.240,227.176 213.642,227.029 214.229 M246.294 218.234 C 246.496 224.609,246.703 225.265,246.725 219.600 C 246.736 217.070,246.609 214.655,246.444 214.234 C 246.279 213.813,246.211 215.613,246.294 218.234 M268.215 214.823 C 265.771 216.042,263.147 218.906,263.216 220.280 C 263.225 220.456,263.517 220.060,263.865 219.400 C 266.722 213.979,273.860 212.715,279.178 216.686 C 280.435 217.625,280.507 217.641,279.800 216.831 C 277.431 214.115,271.644 213.112,268.215 214.823 M168.909 220.100 C 164.088 224.931,162.675 226.411,163.500 225.765 C 164.553 224.941,174.707 214.800,174.479 214.800 C 174.325 214.800,171.818 217.185,168.909 220.100 M174.888 236.476 C 174.840 248.068,174.935 257.636,175.100 257.738 C 175.371 257.906,175.363 235.808,175.087 221.200 C 175.026 218.010,174.937 224.884,174.888 236.476 M226.390 218.081 C 226.284 219.116,226.345 219.815,226.526 219.634 C 226.707 219.453,226.793 218.607,226.719 217.753 L 226.583 216.200 226.390 218.081 M211.600 220.642 C 211.600 220.862,212.275 221.663,213.099 222.422 L 214.598 223.800 213.402 222.400 C 212.744 221.630,212.070 220.829,211.903 220.620 C 211.715 220.384,211.600 220.392,211.600 220.642 M224.400 222.149 C 223.411 223.286,223.275 223.570,223.937 223.116 C 224.881 222.468,226.202 220.838,225.941 220.643 C 225.863 220.586,225.170 221.263,224.400 222.149 M262.649 221.415 C 262.512 221.773,262.425 222.816,262.456 223.733 C 262.509 225.301,262.529 225.270,262.792 223.200 C 263.090 220.855,263.051 220.368,262.649 221.415 M282.311 227.131 C 282.480 235.440,282.671 236.101,282.734 228.600 C 282.764 225.080,282.653 221.989,282.489 221.731 C 282.325 221.472,282.245 223.902,282.311 227.131 M305.915 223.928 C 305.538 224.078,306.798 224.210,308.715 224.221 C 310.703 224.233,311.770 224.122,311.200 223.961 C 309.909 223.598,306.796 223.578,305.915 223.928 M216.938 224.894 C 217.192 225.056,218.030 225.188,218.800 225.188 C 219.570 225.188,220.408 225.056,220.662 224.894 C 220.916 224.732,220.078 224.600,218.800 224.600 C 217.522 224.600,216.684 224.732,216.938 224.894 M302.331 225.716 C 300.232 227.311,298.405 230.460,298.453 232.400 C 298.487 233.770,298.495 233.762,298.830 232.059 C 299.428 229.019,302.272 225.200,303.938 225.200 C 304.166 225.200,304.464 225.020,304.600 224.800 C 305.096 223.998,304.020 224.432,302.331 225.716 M313.200 225.073 C 313.750 225.456,314.875 226.459,315.700 227.301 C 316.525 228.144,317.200 228.667,317.200 228.463 C 317.200 227.969,314.311 225.380,313.135 224.821 C 312.270 224.410,312.275 224.429,313.200 225.073 M246.809 225.926 C 246.788 227.169,249.006 230.065,250.600 230.876 C 251.040 231.100,250.702 230.692,249.848 229.970 C 248.995 229.248,247.964 227.924,247.557 227.028 C 247.150 226.133,246.814 225.637,246.809 225.926 M261.453 227.189 C 260.117 230.216,256.862 231.904,253.204 231.466 C 252.005 231.323,251.668 231.367,252.200 231.597 C 255.497 233.026,260.650 230.552,262.051 226.867 C 262.667 225.246,262.199 225.499,261.453 227.189 M161.565 228.100 C 160.150 230.039,157.861 234.395,158.120 234.654 C 158.215 234.749,158.794 233.786,159.405 232.513 C 160.017 231.241,161.120 229.345,161.858 228.300 C 162.595 227.255,163.110 226.400,163.002 226.400 C 162.894 226.400,162.247 227.165,161.565 228.100 M318.200 254.883 C 318.200 267.927,318.315 277.520,318.457 276.200 C 318.794 273.047,318.797 233.270,318.460 232.083 C 318.317 231.578,318.200 241.838,318.200 254.883 M297.821 235.934 C 297.656 236.668,296.760 238.063,295.829 239.034 C 294.899 240.005,294.265 240.800,294.421 240.800 C 295.489 240.800,298.650 236.126,298.287 235.082 C 298.195 234.817,297.985 235.200,297.821 235.934 M282.801 236.120 C 282.798 236.788,283.956 238.634,284.859 239.401 C 285.800 240.200,285.800 240.200,285.144 239.400 C 284.783 238.960,284.108 237.970,283.645 237.200 C 283.182 236.430,282.802 235.944,282.801 236.120 M156.846 237.667 C 156.821 238.034,156.696 238.664,156.570 239.067 C 156.352 239.762,156.363 239.763,156.797 239.087 C 157.048 238.696,157.173 238.066,157.073 237.687 C 156.911 237.068,156.888 237.066,156.846 237.667 M286.000 240.326 C 286.000 240.804,288.983 241.747,289.654 241.480 C 289.964 241.357,289.803 241.250,289.280 241.232 C 288.774 241.214,287.829 240.925,287.180 240.590 C 286.531 240.254,286.000 240.135,286.000 240.326 M155.854 241.954 C 155.700 242.918,155.658 243.791,155.761 243.894 C 156.030 244.163,156.515 241.345,156.307 240.722 C 156.212 240.436,156.008 240.990,155.854 241.954 M292.000 241.200 L 290.600 241.495 291.876 241.547 C 292.578 241.576,293.264 241.420,293.400 241.200 C 293.536 240.980,293.592 240.824,293.524 240.853 C 293.456 240.882,292.770 241.038,292.000 241.200 M155.378 259.200 C 155.378 266.130,155.433 268.965,155.499 265.500 C 155.566 262.035,155.566 256.365,155.499 252.900 C 155.433 249.435,155.378 252.270,155.378 259.200 M189.167 259.070 C 186.995 263.163,179.981 263.532,176.838 259.719 C 176.157 258.893,175.600 258.402,175.600 258.628 C 175.600 260.275,179.979 262.800,182.835 262.800 C 185.732 262.800,191.065 259.331,189.923 258.190 C 189.819 258.086,189.479 258.482,189.167 259.070 M155.670 275.200 C 155.657 275.750,155.795 276.920,155.977 277.800 L 156.308 279.400 156.307 278.000 C 156.305 276.235,155.709 273.612,155.670 275.200 M317.455 281.455 C 317.313 282.486,317.274 283.408,317.369 283.502 C 317.463 283.596,317.665 282.839,317.818 281.818 C 317.971 280.798,318.010 279.876,317.904 279.771 C 317.798 279.665,317.596 280.423,317.455 281.455 M156.468 280.600 C 156.474 281.040,156.624 281.850,156.800 282.400 L 157.120 283.400 157.132 282.400 C 157.138 281.850,156.989 281.040,156.800 280.600 L 156.456 279.800 156.468 280.600 M157.228 284.276 C 157.318 285.315,157.944 286.196,157.972 285.324 C 157.987 284.842,157.820 284.336,157.600 284.200 C 157.380 284.064,157.213 284.098,157.228 284.276 M316.650 285.650 C 316.509 286.353,316.469 287.002,316.559 287.092 C 316.650 287.183,316.848 286.691,317.000 286.000 C 317.152 285.309,317.193 284.659,317.091 284.558 C 316.989 284.456,316.791 284.947,316.650 285.650 M158.372 287.846 C 158.875 289.519,159.546 291.065,159.569 290.600 C 159.594 290.065,158.617 287.283,158.286 286.953 C 158.142 286.809,158.181 287.211,158.372 287.846 M315.837 289.344 C 315.698 290.084,315.757 291.119,315.967 291.644 C 316.279 292.424,316.354 292.177,316.375 290.300 C 316.403 287.704,316.209 287.359,315.837 289.344 M160.268 292.871 C 161.849 296.862,167.632 306.342,168.513 306.385 C 168.685 306.393,168.115 305.455,167.247 304.300 C 164.670 300.873,160.400 293.219,160.400 292.028 C 160.400 291.819,160.216 291.534,159.992 291.395 C 159.767 291.256,159.892 291.921,160.268 292.871 M316.424 293.409 C 316.381 294.148,318.757 296.696,320.293 297.560 C 321.186 298.062,321.410 298.121,320.843 297.704 C 319.458 296.684,317.475 294.705,316.924 293.790 C 316.661 293.356,316.436 293.184,316.424 293.409 M170.299 308.600 C 171.205 309.700,176.228 314.830,181.461 320.000 L 190.975 329.400 180.206 318.400 C 174.284 312.350,169.261 307.220,169.045 307.000 C 168.828 306.780,169.392 307.500,170.299 308.600 M305.715 313.520 C 305.448 313.690,306.207 313.829,307.400 313.829 C 308.593 313.829,309.352 313.690,309.085 313.520 C 308.818 313.351,308.060 313.212,307.400 313.212 C 306.740 313.212,305.982 313.351,305.715 313.520 M302.239 315.272 C 299.736 317.335,298.321 322.007,299.596 324.000 C 299.853 324.402,299.899 323.908,299.734 322.503 C 299.332 319.065,300.622 316.562,303.846 314.524 C 304.261 314.261,304.416 314.036,304.191 314.024 C 303.966 314.011,303.088 314.572,302.239 315.272 M310.400 314.394 C 310.730 314.611,311.435 314.791,311.967 314.794 C 313.251 314.802,312.925 314.575,311.200 314.258 C 310.215 314.077,309.978 314.118,310.400 314.394 M300.348 325.478 C 300.599 325.960,300.998 326.475,301.235 326.621 C 301.471 326.768,302.010 327.453,302.431 328.144 C 302.852 328.835,303.198 329.192,303.199 328.938 C 303.199 328.684,302.550 327.694,301.757 326.738 C 299.916 324.522,299.794 324.413,300.348 325.478 M191.827 331.000 C 193.200 332.800,193.468 332.803,192.304 331.005 C 191.807 330.238,191.256 329.608,191.080 329.605 C 190.903 329.602,191.240 330.230,191.827 331.000 M193.936 334.100 C 195.105 335.998,196.800 339.450,196.800 339.934 C 196.800 340.165,196.984 340.466,197.208 340.605 C 197.433 340.744,197.308 340.079,196.930 339.129 C 196.160 337.188,193.677 332.800,193.348 332.800 C 193.231 332.800,193.495 333.385,193.936 334.100 M198.456 344.200 C 198.456 344.640,198.611 345.360,198.800 345.800 L 199.144 346.600 199.144 345.800 C 199.144 345.360,198.989 344.640,198.800 344.200 L 198.456 343.400 198.456 344.200 M293.600 346.400 L 292.600 346.720 293.600 346.754 C 294.150 346.773,294.870 346.613,295.200 346.400 C 295.964 345.906,295.142 345.906,293.600 346.400 M199.295 347.600 C 199.295 348.150,199.432 349.140,199.600 349.800 C 199.872 350.870,199.905 350.892,199.905 350.000 C 199.905 349.450,199.768 348.460,199.600 347.800 C 199.328 346.730,199.295 346.708,199.295 347.600 M290.500 347.288 C 290.005 347.527,289.600 347.879,289.600 348.070 C 289.600 348.346,290.822 347.752,291.967 346.921 C 292.366 346.631,291.320 346.893,290.500 347.288 M288.113 349.477 C 286.736 351.476,286.356 352.975,286.502 355.831 L 286.643 358.600 286.722 355.749 C 286.802 352.817,287.480 350.577,288.636 349.421 C 288.999 349.058,289.203 348.670,289.091 348.558 C 288.979 348.446,288.539 348.859,288.113 349.477 M200.114 355.000 C 200.117 356.100,200.195 356.503,200.287 355.895 C 200.379 355.286,200.377 354.386,200.282 353.895 C 200.187 353.403,200.111 353.900,200.114 355.000 M287.098 363.000 C 287.215 365.200,287.375 367.075,287.455 367.167 C 287.727 367.479,287.542 362.605,287.213 360.800 C 286.994 359.597,286.956 360.326,287.098 363.000 M199.390 363.790 C 199.232 365.905,199.192 367.726,199.302 367.836 C 199.412 367.946,199.632 366.305,199.790 364.190 C 199.949 362.076,199.989 360.255,199.879 360.145 C 199.769 360.035,199.549 361.676,199.390 363.790 M287.701 369.000 C 287.705 369.880,287.787 370.193,287.883 369.695 C 287.979 369.198,287.975 368.478,287.875 368.095 C 287.775 367.713,287.696 368.120,287.701 369.000 M198.599 373.281 C 198.446 375.116,198.389 377.064,198.473 377.609 C 198.558 378.154,198.765 376.735,198.935 374.455 C 199.104 372.175,199.160 370.227,199.060 370.126 C 198.959 370.026,198.751 371.445,198.599 373.281 M288.131 373.400 C 288.133 374.940,288.205 375.521,288.292 374.691 C 288.379 373.861,288.377 372.601,288.289 371.891 C 288.200 371.181,288.129 371.860,288.131 373.400 M288.501 377.800 C 288.505 378.680,288.587 378.993,288.683 378.495 C 288.779 377.998,288.775 377.278,288.675 376.895 C 288.575 376.513,288.496 376.920,288.501 377.800 M288.830 381.833 C 288.846 383.135,289.007 385.010,289.187 386.000 C 289.406 387.203,289.444 386.474,289.302 383.800 C 289.066 379.348,288.784 378.175,288.830 381.833 M197.889 382.359 C 197.730 383.766,197.625 385.836,197.655 386.959 C 197.694 388.401,197.812 387.885,198.058 385.200 C 198.459 380.829,198.321 378.524,197.889 382.359 M289.720 390.400 C 289.720 391.610,289.795 392.105,289.887 391.500 C 289.978 390.895,289.978 389.905,289.887 389.300 C 289.795 388.695,289.720 389.190,289.720 390.400 M197.301 391.000 C 197.305 391.880,197.387 392.193,197.483 391.695 C 197.579 391.198,197.575 390.478,197.475 390.095 C 197.375 389.713,197.296 390.120,197.301 391.000 " stroke="none" fill="#86665c" fill-rule="evenodd"></path></g></svg>